<?xml version="1.0" encoding="UTF-8" standalone="no"?>
<svg
   xmlns:dc="http://purl.org/dc/elements/1.1/"
   xmlns:cc="http://creativecommons.org/ns#"
   xmlns:rdf="http://www.w3.org/1999/02/22-rdf-syntax-ns#"
   xmlns:svg="http://www.w3.org/2000/svg"
   xmlns="http://www.w3.org/2000/svg"
   id="svg2451"
   viewBox="0, 0, 128, 128"
   height="128"
   width="128"
   y="0px"
   x="0px"
   version="1.1">
  <metadata
     id="metadata2455">
    <rdf:RDF>
      <cc:Work
         rdf:about="">
        <dc:format>image/svg+xml</dc:format>
        <dc:type
           rdf:resource="http://purl.org/dc/dcmitype/StillImage" />
        <dc:title></dc:title>
      </cc:Work>
    </rdf:RDF>
  </metadata>
  <g
     transform="matrix(1.2705,0,0,1.2705,-28.882197,-27.900779)"
     id="Background">
    <rect
       style="fill:#000000;fill-opacity:0"
       id="rect2434"
       height="128"
       width="128"
       y="0"
       x="0" />
  </g>
  <g
     id="g2447">
    <g
       style="fill:#ebeded;fill-opacity:1"
       id="g3681"
       transform="matrix(0.2025,0,0,0.2025,11.313137,17.859557)" />
    <g
       style="fill:#ebeded;fill-opacity:1"
       id="g3683"
       transform="matrix(0.2025,0,0,0.2025,11.313137,17.859557)" />
    <g
       style="fill:#ebeded;fill-opacity:1"
       id="g3685"
       transform="matrix(0.2025,0,0,0.2025,11.313137,17.859557)" />
    <g
       style="fill:#ebeded;fill-opacity:1"
       id="g3687"
       transform="matrix(0.2025,0,0,0.2025,11.313137,17.859557)" />
    <g
       style="fill:#ebeded;fill-opacity:1"
       id="g3689"
       transform="matrix(0.2025,0,0,0.2025,11.313137,17.859557)" />
    <g
       style="fill:#ebeded;fill-opacity:1"
       id="g3691"
       transform="matrix(0.2025,0,0,0.2025,11.313137,17.859557)" />
    <g
       style="fill:#ebeded;fill-opacity:1"
       id="g3693"
       transform="matrix(0.2025,0,0,0.2025,11.313137,17.859557)" />
    <g
       style="fill:#ebeded;fill-opacity:1"
       id="g3695"
       transform="matrix(0.2025,0,0,0.2025,11.313137,17.859557)" />
    <g
       style="fill:#ebeded;fill-opacity:1"
       id="g3697"
       transform="matrix(0.2025,0,0,0.2025,11.313137,17.859557)" />
    <g
       style="fill:#ebeded;fill-opacity:1"
       id="g3699"
       transform="matrix(0.2025,0,0,0.2025,11.313137,17.859557)" />
    <g
       style="fill:#ebeded;fill-opacity:1"
       id="g3701"
       transform="matrix(0.2025,0,0,0.2025,11.313137,17.859557)" />
    <g
       style="fill:#ebeded;fill-opacity:1"
       id="g3703"
       transform="matrix(0.2025,0,0,0.2025,11.313137,17.859557)" />
    <g
       style="fill:#ebeded;fill-opacity:1"
       id="g3705"
       transform="matrix(0.2025,0,0,0.2025,11.313137,17.859557)" />
    <g
       style="fill:#ebeded;fill-opacity:1"
       id="g3707"
       transform="matrix(0.2025,0,0,0.2025,11.313137,17.859557)" />
    <g
       style="fill:#ebeded;fill-opacity:1"
       id="g3709"
       transform="matrix(0.2025,0,0,0.2025,11.313137,17.859557)" />
    <g
       style="fill:#737370;fill-opacity:1;stroke:none"
       id="g599"
       transform="matrix(0.51884044,0,0,0.51884044,-65.847195,-54.488427)">
      <polygon
         transform="matrix(0.1356032,0.2932032,-0.00416466,0.97115047,323.55068,-54.480993)"
         id="polygon597"
         points="184.642,143.629 340.526,71.579 340.526,274.219 184.642,357.35 "
         style="fill:#737370;fill-opacity:1;stroke:none" />
      <rect
         y="139.58749"
         x="133.37123"
         height="207.25262"
         width="207.25262"
         id="rect1581"
         style="fill:#737370;fill-opacity:1;stroke:none;stroke-width:2.33212352;stroke-opacity:1" />
      <polygon
         transform="matrix(-0.31823348,-0.13560319,-0.97038174,0.00416466,540.83715,157.00748)"
         id="polygon597-3"
         points="340.526,274.219 184.642,357.35 184.642,143.629 340.526,71.579 "
         style="fill:#737370;fill-opacity:1;stroke:none" />
    </g>
    <g
       id="g601"
       transform="matrix(0.3375,0,0,0.3375,136.96358,-2.8188527)" />
    <g
       id="g603"
       transform="matrix(0.3375,0,0,0.3375,136.96358,-2.8188527)" />
    <g
       id="g605"
       transform="matrix(0.3375,0,0,0.3375,136.96358,-2.8188527)" />
    <g
       id="g607"
       transform="matrix(0.3375,0,0,0.3375,136.96358,-2.8188527)" />
    <g
       id="g609"
       transform="matrix(0.3375,0,0,0.3375,136.96358,-2.8188527)" />
    <g
       id="g611"
       transform="matrix(0.3375,0,0,0.3375,136.96358,-2.8188527)" />
    <g
       id="g613"
       transform="matrix(0.3375,0,0,0.3375,136.96358,-2.8188527)" />
    <g
       id="g615"
       transform="matrix(0.3375,0,0,0.3375,136.96358,-2.8188527)" />
    <g
       id="g617"
       transform="matrix(0.3375,0,0,0.3375,136.96358,-2.8188527)" />
    <g
       id="g619"
       transform="matrix(0.3375,0,0,0.3375,136.96358,-2.8188527)" />
    <g
       id="g621"
       transform="matrix(0.3375,0,0,0.3375,136.96358,-2.8188527)" />
    <g
       id="g623"
       transform="matrix(0.3375,0,0,0.3375,136.96358,-2.8188527)" />
    <g
       id="g625"
       transform="matrix(0.3375,0,0,0.3375,136.96358,-2.8188527)" />
    <g
       id="g627"
       transform="matrix(0.3375,0,0,0.3375,136.96358,-2.8188527)" />
    <g
       id="g629"
       transform="matrix(0.3375,0,0,0.3375,136.96358,-2.8188527)" />
    <g
       style="fill:#82d1f5;fill-opacity:1"
       id="g8809"
       transform="matrix(0.33,0,0,0.33,8.1756742,23.91754)">
      <path
         style="fill:#82d1f5;fill-opacity:1"
         id="path8811"
         d="m 282.415,167.247 c -4.814,-28.692 -26.1,-31.246 -33.61,-31.246 -1.626,0 -2.538,0.12 -2.538,0.12 -6.473,-12.948 -16.164,-16.186 -24.285,-16.186 -8.123,-0.001 -14.56,3.238 -14.56,3.238 -6.475,-12.95 -16.392,-16.188 -24.639,-16.188 -8.247,-0.001 -14.81,3.236 -14.81,3.236 l 0,-34.257 c 0,-13.004 -9.747,-19.505 -19.501,-19.505 -9.752,0 -19.499,6.501 -19.499,19.505 0,26.011 0,86.059 0,86.059 -45,10.979 -4,78.539 9,98.864 l 0,24.946 c 0,5.5 5.473,10.5 10.973,10.5 l 103,0 c 5.5,0 9.027,-5 9.027,-10.5 l 0,-23.666 c 24,-37.478 25.575,-70.302 21.442,-94.92 z" />
      <circle
         style="fill:#82d1f5;fill-opacity:1"
         id="circle8813"
         r="19.604"
         cy="19.604"
         cx="148.19501" />
      <circle
         style="fill:#82d1f5;fill-opacity:1"
         id="circle8815"
         r="19.604"
         cy="76.063004"
         cx="89.384003" />
      <circle
         style="fill:#82d1f5;fill-opacity:1"
         id="circle8817"
         r="19.604"
         cy="19.604"
         cx="89.384003" />
      <circle
         style="fill:#82d1f5;fill-opacity:1"
         id="circle8819"
         r="19.604"
         cy="76.063004"
         cx="31.749001" />
      <circle
         style="fill:#82d1f5;fill-opacity:1"
         id="circle8821"
         r="19.604"
         cy="19.604"
         cx="31.749001" />
      <circle
         style="fill:#82d1f5;fill-opacity:1"
         id="circle8823"
         r="19.604"
         cy="132.521"
         cx="89.384003" />
      <circle
         style="fill:#82d1f5;fill-opacity:1"
         id="circle8825"
         r="19.604"
         cy="132.521"
         cx="31.749001" />
    </g>
    <g
       id="g8827"
       transform="matrix(0.33,0,0,0.33,187.94906,-75.244515)" />
    <g
       id="g8829"
       transform="matrix(0.33,0,0,0.33,187.94906,-75.244515)" />
    <g
       id="g8831"
       transform="matrix(0.33,0,0,0.33,187.94906,-75.244515)" />
    <g
       id="g8833"
       transform="matrix(0.33,0,0,0.33,187.94906,-75.244515)" />
    <g
       id="g8835"
       transform="matrix(0.33,0,0,0.33,187.94906,-75.244515)" />
    <g
       id="g8837"
       transform="matrix(0.33,0,0,0.33,187.94906,-75.244515)" />
    <g
       id="g8839"
       transform="matrix(0.33,0,0,0.33,187.94906,-75.244515)" />
    <g
       id="g8841"
       transform="matrix(0.33,0,0,0.33,187.94906,-75.244515)" />
    <g
       id="g8843"
       transform="matrix(0.33,0,0,0.33,187.94906,-75.244515)" />
    <g
       id="g8845"
       transform="matrix(0.33,0,0,0.33,187.94906,-75.244515)" />
    <g
       id="g8847"
       transform="matrix(0.33,0,0,0.33,187.94906,-75.244515)" />
    <g
       id="g8849"
       transform="matrix(0.33,0,0,0.33,187.94906,-75.244515)" />
    <g
       id="g8851"
       transform="matrix(0.33,0,0,0.33,187.94906,-75.244515)" />
    <g
       id="g8853"
       transform="matrix(0.33,0,0,0.33,187.94906,-75.244515)" />
    <g
       id="g8855"
       transform="matrix(0.33,0,0,0.33,187.94906,-75.244515)" />
  </g>
  <defs
     id="defs2449" />
</svg>
